<mxfile host="65bd71144e">
    <diagram id="l_3EztwkF13Zctmzr-sn" name="Page-1">
        <mxGraphModel dx="995" dy="880" grid="1" gridSize="10" guides="1" tooltips="1" connect="1" arrows="1" fold="1" page="1" pageScale="1" pageWidth="827" pageHeight="1169" math="0" shadow="0">
            <root>
                <mxCell id="0"/>
                <mxCell id="1" parent="0"/>
                <mxCell id="2" value="" style="aspect=fixed;html=1;points=[];align=center;image;fontSize=12;image=img/lib/azure2/containers/Container_Instances.svg;" parent="1" vertex="1">
                    <mxGeometry x="609" y="261" width="64" height="69" as="geometry"/>
                </mxCell>
                <mxCell id="8" value="Publish Event" style="edgeStyle=none;html=1;exitX=1;exitY=0.5;exitDx=0;exitDy=0;" parent="1" source="41" target="7" edge="1">
                    <mxGeometry relative="1" as="geometry"/>
                </mxCell>
                <mxCell id="9" value="Receive Event" style="edgeStyle=none;html=1;entryX=0;entryY=0.5;entryDx=0;entryDy=0;" parent="1" source="7" target="42" edge="1">
                    <mxGeometry relative="1" as="geometry"/>
                </mxCell>
                <mxCell id="7" value="Azure ServiceBus" style="aspect=fixed;html=1;points=[];align=center;image;fontSize=12;image=img/lib/azure2/integration/Event_Grid_Topics.svg;" parent="1" vertex="1">
                    <mxGeometry x="339" y="120" width="67" height="60" as="geometry"/>
                </mxCell>
                <mxCell id="27" value="Send Device Messages" style="edgeStyle=none;html=1;" parent="1" source="25" target="4" edge="1">
                    <mxGeometry relative="1" as="geometry">
                        <mxPoint x="109" y="380.0000000000001" as="targetPoint"/>
                    </mxGeometry>
                </mxCell>
                <mxCell id="25" value="Browser Session" style="sketch=0;pointerEvents=1;shadow=0;dashed=0;html=1;strokeColor=none;labelPosition=center;verticalLabelPosition=bottom;verticalAlign=top;align=center;fillColor=#505050;shape=mxgraph.mscae.intune.device_history" parent="1" vertex="1">
                    <mxGeometry x="86.5" y="470" width="45" height="50" as="geometry"/>
                </mxCell>
                <mxCell id="34" value="&lt;span style=&quot;&quot;&gt;Message-Receiver&lt;/span&gt;&lt;br style=&quot;&quot;&gt;&lt;span style=&quot;&quot;&gt;[C#]&lt;/span&gt;" style="text;html=1;strokeColor=none;fillColor=none;align=center;verticalAlign=middle;whiteSpace=wrap;rounded=0;labelBackgroundColor=none;fontColor=#000000;" parent="1" vertex="1">
                    <mxGeometry x="658" y="276.15999999999997" width="100" height="30" as="geometry"/>
                </mxCell>
                <mxCell id="4" value="Message-Creator &lt;br&gt;[C#]" style="aspect=fixed;html=1;points=[];align=center;image;fontSize=12;image=img/lib/azure2/containers/Container_Instances.svg;" parent="1" vertex="1">
                    <mxGeometry x="79" y="254.81" width="60" height="64.69" as="geometry"/>
                </mxCell>
                <mxCell id="38" value="Azure Application Insights" style="aspect=fixed;html=1;points=[];align=center;image;fontSize=12;image=img/lib/azure2/devops/Application_Insights.svg;fontColor=#000000;" parent="1" vertex="1">
                    <mxGeometry x="377" y="319.5" width="36.32" height="52" as="geometry"/>
                </mxCell>
                <mxCell id="41" value="" style="shape=image;verticalLabelPosition=bottom;verticalAlign=top;imageAspect=1;aspect=fixed;image=data:image/svg+xml,PHN2ZyB4bWxucz0iaHR0cDovL3d3dy53My5vcmcvMjAwMC9zdmciIHZpZXdCb3g9IjAgMCAzNjcgMjcwIj48ZyBmaWxsPSJub25lIiBmaWxsLXJ1bGU9ImV2ZW5vZGQiPjxwYXRoIGQ9Ik04OS43OTIgMTkzLjUwOUg2Mi45di04LjQ0NWMtMi41NjkgMy4yMjUtNS4xNjUgNS41NzUtNy43ODkgNy4wNTEtNC41OTEgMi41NjktOS44MSAzLjg1My0xNS42NiAzLjg1My05LjQ1NSAwLTE3Ljg3Mi0zLjI1Mi0yNS4yNTEtOS43NTZDNS40IDE3OC40NSAxIDE2OC4xNzUgMSAxNTUuMzg1YzAtMTMuMDA5IDQuNTEtMjMuMzk0IDEzLjUyOC0zMS4xNTUgNy4xNi02LjE3NiAxNS4zODYtOS4yNjUgMjQuNjc4LTkuMjY1IDUuNDExIDAgMTAuNDk0IDEuMTQ4IDE1LjI1IDMuNDQ0IDIuNzMyIDEuMzEyIDUuNTQ3IDMuNDcgOC40NDQgNi40NzdWNzAuMzY1aDI2Ljg5MnYxMjMuMTQ0ek02My43MiAxNTUuNDY3YzAtNC44MS0xLjY5NC04Ljg5Ni01LjA4My0xMi4yNTctMy4zOS0zLjM2Mi03LjQ4OC01LjA0Mi0xMi4yOTgtNS4wNDItNS4zNTcgMC05Ljc1NyAyLjAyMi0xMy4yIDYuMDY3LTIuNzg4IDMuMjgtNC4xODEgNy4wMjMtNC4xODEgMTEuMjMyczEuMzkzIDcuOTUzIDQuMTggMTEuMjMyYzMuMzkgNC4wNDUgNy43OSA2LjA2NyAxMy4yIDYuMDY3IDQuODY1IDAgOC45NzgtMS42NjcgMTIuMzQtNS4wMDEgMy4zNjEtMy4zMzQgNS4wNDItNy40MzQgNS4wNDItMTIuMjk4em0xMjYuOTMgMzguMDQyaC0yNi44OTJ2LTguNDQ1Yy0yLjU2OSAzLjIyNS01LjE2NSA1LjU3NS03Ljc4OCA3LjA1MS00LjU5MiAyLjU2OS05LjgxMSAzLjg1My0xNS42NiAzLjg1My05LjQ1NiAwLTE3Ljg3My0zLjI1Mi0yNS4yNTItOS43NTYtOC44LTcuNzYyLTEzLjItMTguMDM3LTEzLjItMzAuODI3IDAtMTMuMDA5IDQuNTEtMjMuMzk0IDEzLjUyOC0zMS4xNTUgNy4xNi02LjE3NiAxNS4zODYtOS4yNjUgMjQuNjc4LTkuMjY1IDUuNDExIDAgMTAuNDk0IDEuMTQ4IDE1LjI1IDMuNDQ0IDIuNzMzIDEuMzEyIDUuNTQ4IDMuNDcgOC40NDQgNi40Nzd2LTcuNDYxaDI2Ljg5MnY3Ni4wODR6bS0yNi4wNzItMzguMDQyYzAtNC44MS0xLjY5NC04Ljg5Ni01LjA4My0xMi4yNTctMy4zODktMy4zNjItNy40ODgtNS4wNDItMTIuMjk4LTUuMDQyLTUuMzU2IDAtOS43NTYgMi4wMjItMTMuMiA2LjA2Ny0yLjc4NyAzLjI4LTQuMTgxIDcuMDIzLTQuMTgxIDExLjIzMnMxLjM5NCA3Ljk1MyA0LjE4MSAxMS4yMzJjMy4zODkgNC4wNDUgNy43ODkgNi4wNjcgMTMuMiA2LjA2NyA0Ljg2NSAwIDguOTc4LTEuNjY3IDEyLjM0LTUuMDAxIDMuMzYtMy4zMzQgNS4wNDEtNy40MzQgNS4wNDEtMTIuMjk4em0xMjkuOTY0LjA4MmMwIDEzLjAwOS00LjUxIDIzLjM5My0xMy41MjggMzEuMTU1LTcuMTYgNi4xNzYtMTUuMzg2IDkuMjY0LTI0LjY3OCA5LjI2NC01LjQxMSAwLTEwLjQ5NC0xLjE0Ny0xNS4yNS0zLjQ0My0yLjczMi0xLjMxMi01LjU0Ny0zLjQ3LTguNDQ0LTYuNDc3djQ1LjUwM0gyMDUuNzVWMTE3LjQyNWgyNi44OTJ2OC40NDVjMi40MDUtMy4xNyA1LjAwMS01LjUyIDcuNzg5LTcuMDUxIDQuNTktMi41NyA5LjgxLTMuODU0IDE1LjY2LTMuODU0IDkuNDU1IDAgMTcuODcyIDMuMjUzIDI1LjI1MSA5Ljc1NyA4LjggNy43NjEgMTMuMiAxOC4wMzcgMTMuMiAzMC44Mjd6bS0yNy45NTgtLjA4MmMwLTQuMzE4LTEuMzY2LTguMDYyLTQuMDk5LTExLjIzMi0zLjQ0My00LjA0NS03Ljg3LTYuMDY3LTEzLjI4Mi02LjA2Ny00Ljg2NCAwLTguOTc3IDEuNjY3LTEyLjMzOSA1LTMuMzYxIDMuMzM1LTUuMDQyIDcuNDM0LTUuMDQyIDEyLjI5OSAwIDQuODEgMS42OTQgOC44OTUgNS4wODMgMTIuMjU3IDMuMzg5IDMuMzYxIDcuNDg4IDUuMDQyIDEyLjI5OCA1LjA0MiA1LjQxMSAwIDkuODExLTIuMDIyIDEzLjItNi4wNjcgMi43ODgtMy4yOCA0LjE4MS03LjAyMyA0LjE4MS0xMS4yMzJ6bTk3LjA4Ny0xMy4yYy0zLjc3MS0xLjgwNC03LjU5Ny0yLjcwNi0xMS40NzgtMi43MDYtOC44NTQgMC0xNC41OTMgMy42MDgtMTcuMjE3IDEwLjgyMy0uOTg0IDIuNjIzLTEuNDc2IDYuMTQ5LTEuNDc2IDEwLjU3NnYzMi41NDloLTI2Ljg5di03Ni4wODRoMjYuODl2MTIuNDYyYzIuODQyLTQuNDI3IDUuOTAzLTcuNjI1IDkuMTgzLTkuNTkyIDQuNDI3LTIuNjI0IDkuNjc0LTMuOTM2IDE1Ljc0MS0zLjkzNiAxLjQyMSAwIDMuMTcuMDgyIDUuMjQ3LjI0NnYyNS42NjJ6IiBmaWxsPSIjMEQyMTkyIi8+PHBhdGggZmlsbD0iIzBEMjE5MiIgZmlsbC1ydWxlPSJub256ZXJvIiBkPSJNMjA1LjUzOCAxOTQuMDYyaDI3LjA3N2wyLjMzMiA2My41NzItMTUuODcgMTEuMTItMTUuODctMTEuMTJ6Ii8+PHJlY3QgZmlsbD0iIzBEMjE5MiIgZmlsbC1ydWxlPSJub256ZXJvIiB4PSIxNDQuODI5IiB5PSIyLjI3OSIgd2lkdGg9IjEwMi43MjMiIGhlaWdodD0iNzIuMjk0IiByeD0iMiIvPjxwYXRoIGZpbGw9IiNGRkYiIGZpbGwtcnVsZT0ibm9uemVybyIgb3BhY2l0eT0iLjA4IiBkPSJNMTQ0LjgyOSAyLjI3OWgzNy45OTh2NzIuMjk0aC0zNy45OTh6Ii8+PHJlY3QgZmlsbD0iIzBEMjE5MiIgZmlsbC1ydWxlPSJub256ZXJvIiB4PSIxMTIuMzkxIiB5PSI2OS45MDkiIHdpZHRoPSIxNjYuMjQ4IiBoZWlnaHQ9IjE3LjM1MSIgcng9IjMuNzIiLz48cGF0aCBmaWxsPSIjRkZGIiBmaWxsLXJ1bGU9Im5vbnplcm8iIG9wYWNpdHk9Ii4wOCIgZD0iTTExMi4zOTEgNjkuOTA5aDUxLjQzOHYyMS4zNTVoLTUxLjQzOHoiLz48L2c+PC9zdmc+;" vertex="1" parent="1">
                    <mxGeometry x="69" y="110" width="80" height="80" as="geometry"/>
                </mxCell>
                <mxCell id="42" value="" style="shape=image;verticalLabelPosition=bottom;verticalAlign=top;imageAspect=1;aspect=fixed;image=data:image/svg+xml,PHN2ZyB4bWxucz0iaHR0cDovL3d3dy53My5vcmcvMjAwMC9zdmciIHZpZXdCb3g9IjAgMCAzNjcgMjcwIj48ZyBmaWxsPSJub25lIiBmaWxsLXJ1bGU9ImV2ZW5vZGQiPjxwYXRoIGQ9Ik04OS43OTIgMTkzLjUwOUg2Mi45di04LjQ0NWMtMi41NjkgMy4yMjUtNS4xNjUgNS41NzUtNy43ODkgNy4wNTEtNC41OTEgMi41NjktOS44MSAzLjg1My0xNS42NiAzLjg1My05LjQ1NSAwLTE3Ljg3Mi0zLjI1Mi0yNS4yNTEtOS43NTZDNS40IDE3OC40NSAxIDE2OC4xNzUgMSAxNTUuMzg1YzAtMTMuMDA5IDQuNTEtMjMuMzk0IDEzLjUyOC0zMS4xNTUgNy4xNi02LjE3NiAxNS4zODYtOS4yNjUgMjQuNjc4LTkuMjY1IDUuNDExIDAgMTAuNDk0IDEuMTQ4IDE1LjI1IDMuNDQ0IDIuNzMyIDEuMzEyIDUuNTQ3IDMuNDcgOC40NDQgNi40NzdWNzAuMzY1aDI2Ljg5MnYxMjMuMTQ0ek02My43MiAxNTUuNDY3YzAtNC44MS0xLjY5NC04Ljg5Ni01LjA4My0xMi4yNTctMy4zOS0zLjM2Mi03LjQ4OC01LjA0Mi0xMi4yOTgtNS4wNDItNS4zNTcgMC05Ljc1NyAyLjAyMi0xMy4yIDYuMDY3LTIuNzg4IDMuMjgtNC4xODEgNy4wMjMtNC4xODEgMTEuMjMyczEuMzkzIDcuOTUzIDQuMTggMTEuMjMyYzMuMzkgNC4wNDUgNy43OSA2LjA2NyAxMy4yIDYuMDY3IDQuODY1IDAgOC45NzgtMS42NjcgMTIuMzQtNS4wMDEgMy4zNjEtMy4zMzQgNS4wNDItNy40MzQgNS4wNDItMTIuMjk4em0xMjYuOTMgMzguMDQyaC0yNi44OTJ2LTguNDQ1Yy0yLjU2OSAzLjIyNS01LjE2NSA1LjU3NS03Ljc4OCA3LjA1MS00LjU5MiAyLjU2OS05LjgxMSAzLjg1My0xNS42NiAzLjg1My05LjQ1NiAwLTE3Ljg3My0zLjI1Mi0yNS4yNTItOS43NTYtOC44LTcuNzYyLTEzLjItMTguMDM3LTEzLjItMzAuODI3IDAtMTMuMDA5IDQuNTEtMjMuMzk0IDEzLjUyOC0zMS4xNTUgNy4xNi02LjE3NiAxNS4zODYtOS4yNjUgMjQuNjc4LTkuMjY1IDUuNDExIDAgMTAuNDk0IDEuMTQ4IDE1LjI1IDMuNDQ0IDIuNzMzIDEuMzEyIDUuNTQ4IDMuNDcgOC40NDQgNi40Nzd2LTcuNDYxaDI2Ljg5MnY3Ni4wODR6bS0yNi4wNzItMzguMDQyYzAtNC44MS0xLjY5NC04Ljg5Ni01LjA4My0xMi4yNTctMy4zODktMy4zNjItNy40ODgtNS4wNDItMTIuMjk4LTUuMDQyLTUuMzU2IDAtOS43NTYgMi4wMjItMTMuMiA2LjA2Ny0yLjc4NyAzLjI4LTQuMTgxIDcuMDIzLTQuMTgxIDExLjIzMnMxLjM5NCA3Ljk1MyA0LjE4MSAxMS4yMzJjMy4zODkgNC4wNDUgNy43ODkgNi4wNjcgMTMuMiA2LjA2NyA0Ljg2NSAwIDguOTc4LTEuNjY3IDEyLjM0LTUuMDAxIDMuMzYtMy4zMzQgNS4wNDEtNy40MzQgNS4wNDEtMTIuMjk4em0xMjkuOTY0LjA4MmMwIDEzLjAwOS00LjUxIDIzLjM5My0xMy41MjggMzEuMTU1LTcuMTYgNi4xNzYtMTUuMzg2IDkuMjY0LTI0LjY3OCA5LjI2NC01LjQxMSAwLTEwLjQ5NC0xLjE0Ny0xNS4yNS0zLjQ0My0yLjczMi0xLjMxMi01LjU0Ny0zLjQ3LTguNDQ0LTYuNDc3djQ1LjUwM0gyMDUuNzVWMTE3LjQyNWgyNi44OTJ2OC40NDVjMi40MDUtMy4xNyA1LjAwMS01LjUyIDcuNzg5LTcuMDUxIDQuNTktMi41NyA5LjgxLTMuODU0IDE1LjY2LTMuODU0IDkuNDU1IDAgMTcuODcyIDMuMjUzIDI1LjI1MSA5Ljc1NyA4LjggNy43NjEgMTMuMiAxOC4wMzcgMTMuMiAzMC44Mjd6bS0yNy45NTgtLjA4MmMwLTQuMzE4LTEuMzY2LTguMDYyLTQuMDk5LTExLjIzMi0zLjQ0My00LjA0NS03Ljg3LTYuMDY3LTEzLjI4Mi02LjA2Ny00Ljg2NCAwLTguOTc3IDEuNjY3LTEyLjMzOSA1LTMuMzYxIDMuMzM1LTUuMDQyIDcuNDM0LTUuMDQyIDEyLjI5OSAwIDQuODEgMS42OTQgOC44OTUgNS4wODMgMTIuMjU3IDMuMzg5IDMuMzYxIDcuNDg4IDUuMDQyIDEyLjI5OCA1LjA0MiA1LjQxMSAwIDkuODExLTIuMDIyIDEzLjItNi4wNjcgMi43ODgtMy4yOCA0LjE4MS03LjAyMyA0LjE4MS0xMS4yMzJ6bTk3LjA4Ny0xMy4yYy0zLjc3MS0xLjgwNC03LjU5Ny0yLjcwNi0xMS40NzgtMi43MDYtOC44NTQgMC0xNC41OTMgMy42MDgtMTcuMjE3IDEwLjgyMy0uOTg0IDIuNjIzLTEuNDc2IDYuMTQ5LTEuNDc2IDEwLjU3NnYzMi41NDloLTI2Ljg5di03Ni4wODRoMjYuODl2MTIuNDYyYzIuODQyLTQuNDI3IDUuOTAzLTcuNjI1IDkuMTgzLTkuNTkyIDQuNDI3LTIuNjI0IDkuNjc0LTMuOTM2IDE1Ljc0MS0zLjkzNiAxLjQyMSAwIDMuMTcuMDgyIDUuMjQ3LjI0NnYyNS42NjJ6IiBmaWxsPSIjMEQyMTkyIi8+PHBhdGggZmlsbD0iIzBEMjE5MiIgZmlsbC1ydWxlPSJub256ZXJvIiBkPSJNMjA1LjUzOCAxOTQuMDYyaDI3LjA3N2wyLjMzMiA2My41NzItMTUuODcgMTEuMTItMTUuODctMTEuMTJ6Ii8+PHJlY3QgZmlsbD0iIzBEMjE5MiIgZmlsbC1ydWxlPSJub256ZXJvIiB4PSIxNDQuODI5IiB5PSIyLjI3OSIgd2lkdGg9IjEwMi43MjMiIGhlaWdodD0iNzIuMjk0IiByeD0iMiIvPjxwYXRoIGZpbGw9IiNGRkYiIGZpbGwtcnVsZT0ibm9uemVybyIgb3BhY2l0eT0iLjA4IiBkPSJNMTQ0LjgyOSAyLjI3OWgzNy45OTh2NzIuMjk0aC0zNy45OTh6Ii8+PHJlY3QgZmlsbD0iIzBEMjE5MiIgZmlsbC1ydWxlPSJub256ZXJvIiB4PSIxMTIuMzkxIiB5PSI2OS45MDkiIHdpZHRoPSIxNjYuMjQ4IiBoZWlnaHQ9IjE3LjM1MSIgcng9IjMuNzIiLz48cGF0aCBmaWxsPSIjRkZGIiBmaWxsLXJ1bGU9Im5vbnplcm8iIG9wYWNpdHk9Ii4wOCIgZD0iTTExMi4zOTEgNjkuOTA5aDUxLjQzOHYyMS4zNTVoLTUxLjQzOHoiLz48L2c+PC9zdmc+;" vertex="1" parent="1">
                    <mxGeometry x="599" y="110" width="80" height="80" as="geometry"/>
                </mxCell>
                <mxCell id="43" value="Post localhost:3500/publish" style="edgeStyle=none;html=1;exitX=0.517;exitY=0.003;exitDx=0;exitDy=0;exitPerimeter=0;" edge="1" parent="1" source="4" target="41">
                    <mxGeometry relative="1" as="geometry">
                        <mxPoint x="180" y="310" as="sourcePoint"/>
                        <mxPoint x="370" y="310" as="targetPoint"/>
                    </mxGeometry>
                </mxCell>
                <mxCell id="44" value="Post /receive" style="edgeStyle=none;html=1;" edge="1" parent="1">
                    <mxGeometry relative="1" as="geometry">
                        <mxPoint x="640" y="193" as="sourcePoint"/>
                        <mxPoint x="640" y="253" as="targetPoint"/>
                    </mxGeometry>
                </mxCell>
            </root>
        </mxGraphModel>
    </diagram>
</mxfile>